<svg width="20" height="20" viewBox="0 0 20 20" fill="none" xmlns="http://www.w3.org/2000/svg">
<path d="M14.6076 20C6.55254 20 0 13.4475 0 5.39243C0.00170702 4.07297 0.483248 2.79918 1.35483 1.80857C2.22641 0.817966 3.42853 0.17817 4.73703 0.00849117C5.00627 -0.0228908 5.27846 0.0332138 5.51334 0.168507C5.74823 0.3038 5.93333 0.511097 6.04128 0.759738L8.13851 5.65328C8.2197 5.84316 8.25266 6.05019 8.23446 6.2559C8.21625 6.46162 8.14744 6.65964 8.03417 6.83232L6.30212 9.48255C6.26154 9.54161 6.23727 9.61035 6.23177 9.6818C6.22627 9.75326 6.23975 9.82489 6.27082 9.88947C7.09319 11.5766 8.46077 12.9368 10.1523 13.75C10.215 13.7813 10.285 13.7949 10.3549 13.7894C10.4247 13.7839 10.4917 13.7594 10.5488 13.7187L13.1677 11.9763C13.3403 11.8586 13.5398 11.7864 13.7477 11.7664C13.9556 11.7463 14.1652 11.779 14.3572 11.8615L19.2403 13.9587C19.4889 14.0667 19.6962 14.2518 19.8315 14.4867C19.9668 14.7215 20.0229 14.9937 19.9915 15.263C19.8218 16.5715 19.182 17.7736 18.1914 18.6452C17.2008 19.5168 15.927 19.9983 14.6076 20ZM4.89354 0.832776H4.84137C3.73392 0.977125 2.71678 1.51932 1.97958 2.35826C1.24239 3.1972 0.83548 4.27561 0.834719 5.39243C0.837482 9.04437 2.28943 12.5459 4.87175 15.1283C7.45406 17.7106 10.9556 19.1625 14.6076 19.1653C15.7244 19.1645 16.8028 18.7576 17.6417 18.0204C18.4807 17.2832 19.0229 16.2661 19.1672 15.1586C19.1759 15.0687 19.1552 14.9784 19.1081 14.9012C19.0611 14.8241 18.9903 14.7643 18.9064 14.7308L14.0233 12.6336C13.9598 12.6054 13.8903 12.5935 13.8211 12.599C13.7518 12.6045 13.685 12.6271 13.6268 12.6649L11.0183 14.4074C10.8391 14.5291 10.6312 14.6018 10.4152 14.6182C10.1992 14.6347 9.98266 14.5944 9.78708 14.5013C7.93058 13.6016 6.42838 12.1067 5.51958 10.2547C5.42697 10.0594 5.38602 9.84373 5.40063 9.62816C5.41525 9.41259 5.48494 9.20438 5.60305 9.02345L7.33509 6.37322C7.3738 6.31533 7.397 6.24848 7.40248 6.17906C7.40796 6.10964 7.39553 6.03997 7.36639 5.97673L5.26916 1.09363C5.23989 1.01752 5.18844 0.951955 5.12146 0.905443C5.05448 0.858932 4.97508 0.833615 4.89354 0.832776Z" fill="#B89635"/>
</svg>
